<svg xmlns="http://www.w3.org/2000/svg" viewBox="0 0 309.998 309.998"><path d="M294.998 155.03H250v-48.82l39.714-39.715c5.858-5.857 5.858-15.356 0-21.213-5.857-5.857-15.355-5.857-21.213 0l-23.7 23.701c-12.885-37.2-48.274-63.984-89.802-63.984-41.528 0-76.913 26.787-89.797 63.989L41.497 45.282c-5.856-5.859-15.354-5.857-21.213 0s-5.858 15.355 0 21.213L60 106.212v48.818H15c-8.284 0-15 6.716-15 15 0 8.284 6.716 15 15 15h45.134a94.361 94.361 0 0013.944 44.68l-49.685 49.683c-5.858 5.857-5.858 15.354 0 21.213A14.95 14.95 0 0035 305c3.838 0 7.678-1.465 10.606-4.394l48.095-48.093c16.558 14.018 37.957 22.486 61.301 22.486l.057-.001.033.002c.019 0 .037-.003.056-.003 23.285-.035 44.629-8.494 61.15-22.483l48.094 48.092A14.954 14.954 0 00274.998 305c3.839 0 7.678-1.465 10.607-4.394 5.858-5.858 5.858-15.355 0-21.213l-49.683-49.681a94.358 94.358 0 0013.944-44.682h45.132c8.284 0 15-6.716 15-15 0-8.284-6.716-15-15-15zM154.999 34.999c30.681 0 56.465 21.365 63.254 50H91.747c6.788-28.635 32.571-50 63.252-50zM90 179.999v-9.272c.011-.232.035-.462.035-.696 0-.234-.024-.464-.035-.695V115h50.092v128.254C111.415 236.494 90 210.708 90 179.999zm80.092 63.213V114.999H220v54.297c-.012.244-.037.486-.037.734s.025.49.037.734v9.234c0 30.647-21.324 56.39-49.908 63.214z"/></svg>